<svg width="165" height="165" viewBox="0 0 165 165" fill="none" xmlns="http://www.w3.org/2000/svg">
<g clip-path="url(#clip0_1_82)">
<path d="M161.75 3.25H3.25V161.75H161.75V3.25Z" fill="black"/>
<path d="M158.5 6.5V158.5H6.5V6.5H158.5ZM165 0H0V165H165V0Z" fill="white"/>
<path d="M61.18 71.27L57.3 57.05L53.42 71.27H46.81L39.85 46.81H45.66L49.64 62.52L54.02 46.81H60.58L64.41 62.52L68.14 46.81H74.8L67.79 71.27H61.18Z" fill="white"/>
<path d="M82.42 61.8C83.65 65.17 86.27 66.8 89.24 65.89C91.18 65.3 92.6 63.8 92.53 62.1L98.73 60.2C98.77 65.3 95.83 69.08 90.97 70.57C83.38 72.89 78.31 69.89 75.79 61.65C74.05 55.97 76.46 49.44 83.45 47.3C90.44 45.16 95.35 47.98 98.11 57L82.42 61.8ZM90.75 55.1C89.62 51.75 86.91 50.81 84.55 51.53C82.19 52.25 80.72 54.73 81.45 57.94L90.75 55.1Z" fill="white"/>
<path d="M101.2 44.21V38.65H107.58V44.21H101.2ZM101.2 71.27L101.25 46.81H107.63L107.58 71.27H101.2Z" fill="white"/>
<path d="M140.55 51.94H146.49V60.59C146.49 67 142.17 71.27 135.85 71.27C128.68 71.27 124.55 67 124.55 61.39C124.55 58.45 126.16 55.03 128.35 54.08C125.88 52.8 124.55 50.53 124.55 47.45C124.55 42.18 129.54 38.65 136.56 38.65V43.83C132.29 43.83 130.54 45.31 130.54 48.12C130.54 50.78 132.43 51.94 136.56 51.94L136.58 57.12C132.83 57.12 130.59 58.54 130.59 61.72C130.59 64.33 132.19 66.19 135.8 66.19C138.98 66.19 140.55 64.24 140.55 60.59V51.94Z" fill="white"/>
<path d="M27.32 115.13L18.57 90.67H25.4L30.9 106.82L36.07 90.67H42.88L34.08 115.13H27.32Z" fill="white"/>
<path d="M44.47 88.06V82.5H50.85V88.06H44.47ZM44.47 115.12V90.66H50.85V115.12H44.47Z" fill="white"/>
<path d="M59.61 105.65C60.84 109.02 63.41 110.37 66.37 109.46C68.31 108.87 69.82 107.3 69.72 105.95L75.92 104.05C75.96 109.15 73.02 112.93 68.16 114.42C60.57 116.74 55.5 113.74 52.98 105.5C51.25 99.85 53.7 93.27 60.69 91.14C67.68 89 72.87 92.91 75.3 100.86L59.61 105.66V105.65ZM67.93 98.96C66.8 95.61 64.09 94.67 61.73 95.39C59.37 96.11 57.9 98.59 58.63 101.8L67.93 98.96Z" fill="white"/>
<path d="M77.51 115.13V90.7H83.57V93.63C85.7 90.35 88.19 90.67 90.82 90.67H91.66V95.79C91.66 95.79 90.47 95.79 89.87 95.79C85.9 95.75 83.96 98.5 83.96 102.42V115.13H77.51Z" fill="white"/>
<path d="M93.25 115.13V110.16L104.88 95.8001H93.25V90.6801H113.13V95.8001L100.65 109.87H113.13V115.14H93.25V115.13Z" fill="white"/>
<path d="M18.52 71.27V66.3L30.15 51.94H18.52V46.82H38.4V51.94L25.92 66.01H38.4V71.28H18.52V71.27Z" fill="white"/>
<path d="M114.72 88.07V82.51H121.1V88.07H114.72ZM114.72 115.13V90.67H121.1V115.13H114.72Z" fill="white"/>
<path d="M140.06 111.9C139.17 114.03 136.58 115.13 133.43 115.13C125.46 115.13 122.7 109.29 122.7 103.05C122.7 95.65 127.42 90.67 133.27 90.67C136.32 90.67 138.53 91.83 140.06 94.25V90.67H146.45V115.33C146.45 122.49 141.14 126.35 134.4 126.35C129.14 126.35 122.69 123.87 122.69 117.73H128.64C128.64 120.58 132.41 120.94 133.95 120.94C137.34 120.94 140.05 118.96 140.05 115.81V111.89L140.06 111.9ZM140.26 103.38C140.26 98.12 138.44 95.79 134.8 95.79C131.16 95.79 129.34 98.02 129.34 102.99C129.34 107.32 131.65 109.86 134.8 109.86C137.95 109.86 140.26 107.47 140.26 103.38Z" fill="white"/>
</g>
<defs>
<clipPath id="clip0_1_82">
<rect width="165" height="165" fill="black"/>
</clipPath>
</defs>
</svg>
